<svg width="372" height="568" viewBox="0 0 372 568" fill="none" xmlns="http://www.w3.org/2000/svg">
<path d="M113.533 80.6619C113.696 81.38 113.803 82.1099 113.851 82.8447L170.993 115.826L184.882 107.826L199.689 127.22L176.476 143.773C174.601 145.11 172.343 145.803 170.041 145.747C167.739 145.69 165.517 144.889 163.709 143.462L104.786 96.9535C102.127 97.9383 99.2311 98.0898 96.4837 97.3879C93.7364 96.6859 91.2678 95.1637 89.4062 93.0238C87.5447 90.8838 86.3784 88.2275 86.0626 85.4083C85.7467 82.589 86.2962 79.7403 87.6381 77.2411C88.9799 74.7419 91.0504 72.7106 93.5743 71.4175C96.0981 70.1244 98.9556 69.6307 101.767 70.0021C104.578 70.3734 107.209 71.5923 109.311 73.4965C111.413 75.4007 112.886 77.9 113.533 80.662V80.6619Z" fill="#FFB6B6"/>
<path d="M171.786 112.185C171.968 111.344 172.328 110.552 172.843 109.862C173.359 109.173 174.016 108.603 174.772 108.192L201.153 93.8104C204.666 91.1576 209.087 90.0069 213.447 90.6108C217.807 91.2147 221.75 93.5238 224.41 97.0319C227.071 100.54 228.233 104.96 227.64 109.324C227.048 113.688 224.75 117.638 221.251 120.309L200.107 141.8C199.504 142.413 198.775 142.889 197.971 143.195C197.167 143.502 196.307 143.631 195.449 143.574C194.59 143.518 193.754 143.277 192.997 142.868C192.241 142.459 191.581 141.892 191.063 141.205L172.858 117.056C172.34 116.369 171.976 115.578 171.791 114.738C171.606 113.897 171.604 113.026 171.786 112.185V112.185Z" fill="#3F3D56"/>
<path d="M218.918 28.5778C222.713 16.4748 231.345 5.37437 243.282 1.28291C255.22 -2.80855 272.701 3.42407 281.675 12.373C298.092 28.7423 302.098 84.9767 290.819 102.747C288.576 102.629 280.835 102.541 278.564 102.456L275.352 91.7448V102.35C257.63 101.802 239.179 102.145 220.718 102.5C219.063 89.9182 215.122 40.6807 218.918 28.5778Z" fill="#2F2E41"/>
<path d="M213.838 536.597H197.674L189.985 474.216L213.842 474.217L213.838 536.597Z" fill="#FFB6B6"/>
<path d="M355.343 526.54L339.702 530.619L316.533 472.196L339.619 466.177L355.343 526.54Z" fill="#FFB6B6"/>
<path d="M266.263 153.461L269.926 162.989L269.193 172.516L197.511 197.357L201.068 155.66L209.125 146.131L266.263 153.461Z" fill="#FFB6B6"/>
<path d="M243.598 67.7201C257.738 67.7201 269.201 56.2518 269.201 42.1049C269.201 27.9581 257.738 16.4897 243.598 16.4897C229.459 16.4897 217.996 27.9581 217.996 42.1049C217.996 56.2518 229.459 67.7201 243.598 67.7201Z" fill="#FFB7B7"/>
<path d="M226.007 8.74975C230.926 5.74924 236.561 4.12615 242.321 4.05016C248.082 3.97417 253.758 5.44808 258.755 8.3178C263.751 11.1875 267.886 15.3476 270.725 20.3632C273.565 25.3787 275.006 31.0654 274.897 36.8287C260.941 40.3974 246.069 41.8901 230.309 37.6882L226.706 28.8666L224.582 37.6947C219.761 41.0881 215.107 41.082 210.621 37.6764C210.431 31.9293 211.752 26.233 214.452 21.1568C217.152 16.0806 221.136 11.8024 226.007 8.74975Z" fill="#2F2E41"/>
<path d="M221.07 567.306H209.599L207.552 556.471L202.308 567.306H171.887C170.428 567.306 169.008 566.84 167.834 565.975C166.659 565.11 165.792 563.893 165.358 562.5C164.924 561.107 164.946 559.612 165.422 558.233C165.897 556.853 166.801 555.662 168.001 554.833L192.295 538.047V527.093L217.848 528.619L221.07 567.306Z" fill="#2F2E41"/>
<path d="M371.5 554.061L360.4 556.956L355.688 546.988L353.345 558.796L323.907 566.473C322.496 566.842 321.004 566.749 319.65 566.209C318.295 565.668 317.149 564.709 316.377 563.471C315.606 562.232 315.251 560.78 315.364 559.325C315.476 557.871 316.05 556.49 317.002 555.385L336.279 533.01L333.517 522.411L358.629 517.439L371.5 554.061Z" fill="#2F2E41"/>
<path d="M353.36 487.311L305.978 389.877L291.103 271.289C301.359 252.233 282.313 213.459 282.313 213.459V197.179L208.534 211.105V211.105C193.444 252.284 186.126 295.908 186.953 339.76L189.926 497.397H188.993C187.446 497.397 185.962 498.012 184.867 499.107C183.773 500.202 183.158 501.687 183.158 503.235C183.158 504.784 183.773 506.268 184.867 507.363C185.962 508.458 187.446 509.073 188.993 509.073H218.169C219.716 509.073 221.2 508.458 222.295 507.363C223.389 506.268 224.004 504.784 224.004 503.235C224.004 501.687 223.389 500.202 222.295 499.107C221.2 498.012 219.716 497.397 218.169 497.397H217.416L238.361 296.854L262.714 395.817L321.566 486.936C320.065 487.053 318.667 487.748 317.667 488.874C316.667 490 316.142 491.47 316.202 492.975C316.263 494.481 316.904 495.904 317.991 496.946C319.078 497.988 320.527 498.569 322.032 498.565H351.208C352.565 498.566 353.88 498.094 354.926 497.229C355.972 496.365 356.684 495.162 356.939 493.829C357.194 492.495 356.976 491.115 356.322 489.925C355.669 488.735 354.621 487.81 353.36 487.311H353.36Z" fill="#265D88"/>
<path d="M288.983 223.439C288.741 222.487 288.203 221.635 287.447 221.007C286.692 220.379 285.757 220.006 284.776 219.943C283.804 208.819 277.378 137.477 277.134 135.384L277.124 135.295L275.263 95.5294C275.196 94.0852 274.599 92.7165 273.587 91.6848C272.574 90.653 271.218 90.0306 269.776 89.9362L259.948 89.2936C259.814 89.289 259.686 89.2323 259.592 89.1353C259.498 89.0383 259.446 88.9086 259.446 88.7736C259.446 87.6878 259.232 86.6127 258.817 85.6095C258.402 84.6064 257.793 83.6949 257.025 82.9271C256.258 82.1593 255.347 81.5503 254.344 81.1348C253.342 80.7193 252.267 80.5054 251.182 80.5054H222.087C220.202 80.5061 218.383 81.195 216.97 82.4427C215.557 83.6904 214.648 85.4111 214.413 87.2819C214.4 87.4107 214.339 87.5299 214.242 87.6157C214.145 87.7014 214.02 87.7474 213.89 87.7444L213.887 87.7444C210.581 87.6762 207.36 88.7961 204.809 90.9007C202.257 93.0053 200.545 95.9553 199.981 99.2152C196.004 122.37 188.032 174.922 191.974 204.138C193.346 214.309 192.722 229.605 192.203 238.115C192.152 238.937 192.263 239.762 192.53 240.541C192.798 241.321 193.216 242.039 193.762 242.657C192.602 242.991 191.616 243.764 191.014 244.811C190.412 245.858 190.24 247.098 190.533 248.27C190.836 249.471 191.603 250.503 192.666 251.138C193.729 251.773 195 251.96 196.201 251.657L285.598 229.11C286.798 228.807 287.829 228.04 288.464 226.976C289.099 225.913 289.286 224.641 288.983 223.439Z" fill="#FEA609"/>
<path d="M210.353 88.1413C210.34 86.1733 209.632 84.2733 208.352 82.7782C207.073 81.2832 205.306 80.2897 203.365 79.9739L83.913 60.3486C82.7676 60.1589 81.5952 60.211 80.4711 60.5017L52.4769 67.7438L36.4147 71.9039L6.77245 79.5704C4.98305 80.0354 3.39852 81.0814 2.26724 82.5443C1.13595 84.0073 0.521915 85.8046 0.521423 87.6543V185.607C0.530334 187.516 1.1897 189.365 2.39068 190.849C3.59165 192.332 5.2624 193.362 7.12709 193.767L128.797 219.668C129.368 219.791 129.951 219.851 130.535 219.849C131.387 219.85 132.233 219.721 133.045 219.466L205.333 196.627C207.038 196.094 208.527 195.025 209.578 193.579C210.629 192.133 211.186 190.386 211.166 188.598L210.353 88.1413Z" fill="white"/>
<path d="M82.5605 67.542C82.4733 67.5419 82.3864 67.5531 82.3021 67.5753L8.60301 86.6442C8.37959 86.7021 8.18165 86.8326 8.04038 87.0152C7.8991 87.1978 7.82244 87.4222 7.82242 87.6531V185.604C7.82328 185.843 7.90552 186.074 8.05548 186.259C8.20544 186.445 8.41413 186.573 8.6471 186.624L130.317 212.524C130.493 212.561 130.676 212.552 130.848 212.498L203.136 189.659C203.349 189.593 203.535 189.459 203.666 189.279C203.797 189.098 203.866 188.88 203.864 188.657L203.053 88.2C203.052 87.9542 202.963 87.717 202.803 87.5303C202.643 87.3437 202.423 87.2197 202.18 87.1802L82.7288 67.5556C82.6731 67.5467 82.6169 67.5421 82.5605 67.542V67.542Z" fill="#265D88"/>
<path d="M210.353 88.1413C210.34 86.1733 209.632 84.2733 208.352 82.7782C207.073 81.2832 205.306 80.2897 203.365 79.9739L83.913 60.3486C82.7676 60.1589 81.5952 60.211 80.4711 60.5017L52.4769 67.7438L36.4147 71.9039L6.77245 79.5704C4.98305 80.0354 3.39852 81.0814 2.26724 82.5443C1.13595 84.0073 0.521915 85.8046 0.521423 87.6543V185.607C0.530334 187.516 1.1897 189.365 2.39068 190.849C3.59165 192.332 5.2624 193.362 7.12709 193.767L128.797 219.668C129.368 219.791 129.951 219.851 130.535 219.849C131.387 219.85 132.233 219.721 133.045 219.466L205.333 196.627C207.038 196.094 208.527 195.025 209.578 193.579C210.629 192.133 211.186 190.386 211.166 188.598L210.353 88.1413ZM204.707 194.637L132.42 217.476C131.388 217.798 130.292 217.85 129.235 217.629L7.55817 191.729C6.16009 191.424 4.90775 190.651 4.00771 189.538C3.10766 188.425 2.61372 187.039 2.60742 185.607V87.6544C2.60833 86.3724 3.00212 85.1214 3.73569 84.0703C4.46925 83.0192 5.5073 82.2183 6.70991 81.7758C6.90088 81.7041 7.09592 81.6437 7.29398 81.5949L38.6537 73.4832L57.1982 68.683L80.9926 62.5262C81.5029 62.3899 82.029 62.322 82.5571 62.3244C82.8972 62.3243 83.2367 62.3522 83.5723 62.4079L203.024 82.0332C203.985 82.191 204.897 82.5705 205.686 83.1417C206.475 83.7128 207.121 84.4599 207.572 85.3238C208.023 86.1998 208.261 87.1699 208.267 88.1553L209.08 188.612C209.095 189.954 208.678 191.264 207.89 192.349C207.102 193.434 205.986 194.237 204.707 194.637V194.637Z" fill="#3F3D56"/>
<path d="M207.572 85.3242C207.49 85.3775 207.401 85.4174 207.307 85.4424L172.172 94.9455L161.234 97.9022L130.125 106.313C130.036 106.335 129.945 106.346 129.854 106.348C129.791 106.347 129.728 106.342 129.666 106.334L4.22758 83.4527L3.81039 83.3762C3.53846 83.3253 3.29775 83.1687 3.14092 82.9407C2.98409 82.7127 2.92388 82.4319 2.97353 82.1596C3.02318 81.8873 3.17861 81.6457 3.40582 81.4878C3.63302 81.3299 3.91355 81.2685 4.18591 81.317L6.70997 81.7761L129.812 104.233L156.624 96.9838L171.623 92.9279L206.216 83.571L206.765 83.4249C207.002 83.3623 207.254 83.385 207.477 83.4893C207.699 83.5935 207.878 83.7726 207.982 83.9953C208.009 84.0485 208.03 84.1045 208.044 84.1623C208.102 84.3811 208.087 84.6125 208.001 84.822C207.916 85.0314 207.765 85.2077 207.572 85.3242Z" fill="#3F3D56"/>
<path d="M130.897 220.093C130.622 220.093 130.358 219.984 130.163 219.79C129.967 219.597 129.856 219.334 129.854 219.059L128.811 105.314C128.808 105.037 128.916 104.771 129.11 104.573C129.303 104.376 129.568 104.263 129.844 104.261H129.854C130.129 104.261 130.393 104.369 130.588 104.563C130.783 104.757 130.894 105.02 130.897 105.295L131.94 219.04C131.942 219.316 131.835 219.583 131.641 219.78C131.447 219.978 131.183 220.09 130.906 220.093H130.897Z" fill="#3F3D56"/>
<path d="M172.172 206.255L161.234 209.212L156.624 96.9838L38.9943 73.567C38.879 73.5466 38.7652 73.5187 38.6536 73.4835C37.75 73.2261 36.9605 72.6693 36.4145 71.9043L52.4768 67.7441L57.1981 68.6833L168.813 90.8966C169.4 91.0126 169.955 91.2541 170.44 91.6048C170.925 91.9554 171.328 92.4068 171.623 92.928C171.97 93.5332 172.165 205.532 172.172 206.255Z" fill="#3F3D56"/>
<path d="M167.272 142.267C167.831 142.746 168.352 143.268 168.829 143.828L234.353 136.172L240.725 121.46L264.174 128.18L255.423 155.322C254.716 157.515 253.317 159.419 251.436 160.748C249.556 162.078 247.295 162.761 244.993 162.696L169.972 160.562C168.425 162.94 166.192 164.791 163.569 165.868C160.946 166.945 158.057 167.198 155.287 166.592C152.517 165.987 149.996 164.552 148.061 162.478C146.126 160.405 144.868 157.791 144.454 154.984C144.039 152.178 144.489 149.312 145.743 146.767C146.997 144.223 148.995 142.12 151.472 140.74C153.949 139.359 156.788 138.766 159.61 139.039C162.432 139.311 165.105 140.437 167.272 142.267V142.267Z" fill="#FFB6B6"/>
<path d="M232.817 132.777C232.461 131.994 232.277 131.143 232.279 130.282C232.282 129.422 232.47 128.572 232.83 127.79L245.419 100.498C246.656 96.2723 249.517 92.7094 253.376 90.5909C257.234 88.4724 261.775 87.9712 266.002 89.1972C270.229 90.4232 273.798 93.2763 275.926 97.131C278.054 100.986 278.567 105.527 277.353 109.76L273.207 139.629C273.088 140.481 272.788 141.298 272.325 142.024C271.863 142.749 271.25 143.367 270.527 143.834C269.805 144.301 268.99 144.607 268.139 144.731C267.288 144.855 266.42 144.794 265.594 144.552L236.583 136.045C235.757 135.804 234.993 135.387 234.343 134.823C233.693 134.258 233.173 133.561 232.817 132.777V132.777Z" fill="#265D88"/>
<path d="M50.1205 157.042C49.9905 157.042 49.8609 157.028 49.7342 156.999L13.5569 148.826C13.1045 148.723 12.7113 148.445 12.4638 148.052C12.2162 147.66 12.1345 147.185 12.2366 146.732C12.3386 146.28 12.6162 145.886 13.0082 145.638C13.4002 145.39 13.8746 145.307 14.3273 145.409L50.5046 153.582C50.9246 153.677 51.2949 153.923 51.5447 154.274C51.7946 154.625 51.9064 155.056 51.8589 155.484C51.8114 155.912 51.6078 156.308 51.2871 156.595C50.9664 156.883 50.5511 157.042 50.1205 157.042V157.042Z" fill="white"/>
</svg>
