<svg width="197" height="47" viewBox="0 0 197 47" fill="none" xmlns="http://www.w3.org/2000/svg">
<path d="M154.486 35.1437C155.257 35.1437 155.871 35.3957 156.328 35.8995C156.793 36.3955 157.025 37.0804 157.025 37.9543V41.804H155.017V38.2259C155.017 37.785 154.903 37.4426 154.675 37.1985C154.447 36.9545 154.14 36.8324 153.754 36.8324C153.368 36.8324 153.061 36.9545 152.833 37.1985C152.604 37.4426 152.49 37.785 152.49 38.2259V41.804H150.471V35.2146H152.49V36.0885C152.695 35.7972 152.97 35.5689 153.317 35.4035C153.663 35.2303 154.053 35.1437 154.486 35.1437Z" fill="#265D88"/>
<path d="M165.159 35.2146L161.026 44.9334H158.853L160.365 41.5797L157.684 35.2146H159.94L161.463 39.3359L162.975 35.2146H165.159Z" fill="#265D88"/>
<path d="M165.488 38.5093C165.488 37.8244 165.626 37.2261 165.901 36.7143C166.185 36.2026 166.574 35.809 167.07 35.5334C167.574 35.2579 168.149 35.1201 168.794 35.1201C169.621 35.1201 170.31 35.3366 170.861 35.7696C171.42 36.2026 171.786 36.8127 171.959 37.6H169.81C169.629 37.0962 169.279 36.8442 168.759 36.8442C168.389 36.8442 168.094 36.9899 167.873 37.2812C167.653 37.5646 167.543 37.974 167.543 38.5093C167.543 39.0447 167.653 39.458 167.873 39.7493C168.094 40.0327 168.389 40.1744 168.759 40.1744C169.279 40.1744 169.629 39.9225 169.81 39.4186H171.959C171.786 40.1901 171.42 40.7963 170.861 41.2372C170.302 41.6781 169.613 41.8985 168.794 41.8985C168.149 41.8985 167.574 41.7607 167.07 41.4852C166.574 41.2096 166.185 40.816 165.901 40.3043C165.626 39.7926 165.488 39.1942 165.488 38.5093Z" fill="#265D88"/>
<path d="M78.1381 11.2802C80.7581 11.2802 82.8365 12.0738 84.3733 13.6609C85.9352 15.248 86.7162 17.4524 86.7162 20.274V32.5932H80.2921V21.1431C80.2921 19.7827 79.9268 18.7372 79.1962 18.0066C78.4908 17.2509 77.5083 16.873 76.2486 16.873C74.989 16.873 73.9939 17.2509 73.2633 18.0066C72.5579 18.7372 72.2052 19.7827 72.2052 21.1431V32.5932H65.7811V21.1431C65.7811 19.7827 65.4158 18.7372 64.6852 18.0066C63.9798 17.2509 62.9973 16.873 61.7377 16.873C60.4781 16.873 59.4829 17.2509 58.7524 18.0066C58.047 18.7372 57.6943 19.7827 57.6943 21.1431V32.5932H51.2324V11.5069H57.6943V14.1522C58.3493 13.2704 59.2058 12.5776 60.2639 12.0738C61.322 11.5447 62.5187 11.2802 63.8539 11.2802C65.441 11.2802 66.8518 11.6203 68.0862 12.3005C69.3459 12.9807 70.3284 13.9506 71.0338 15.2103C71.7644 14.0514 72.7595 13.1067 74.0191 12.3761C75.2787 11.6455 76.6517 11.2802 78.1381 11.2802Z" fill="#265D88"/>
<path d="M100.834 32.8955C98.7681 32.8955 96.9038 32.4546 95.2411 31.5729C93.6036 30.6911 92.3062 29.4315 91.3489 27.794C90.4167 26.1564 89.9507 24.2418 89.9507 22.0501C89.9507 19.8835 90.4293 17.9814 91.3867 16.3439C92.344 14.6812 93.654 13.409 95.3167 12.5272C96.9794 11.6455 98.8437 11.2046 100.909 11.2046C102.975 11.2046 104.84 11.6455 106.502 12.5272C108.165 13.409 109.475 14.6812 110.432 16.3439C111.39 17.9814 111.868 19.8835 111.868 22.0501C111.868 24.2166 111.377 26.1313 110.395 27.794C109.437 29.4315 108.115 30.6911 106.427 31.5729C104.764 32.4546 102.9 32.8955 100.834 32.8955ZM100.834 27.3027C102.068 27.3027 103.114 26.8492 103.97 25.9423C104.852 25.0354 105.293 23.738 105.293 22.0501C105.293 20.3621 104.865 19.0647 104.008 18.1578C103.177 17.2509 102.144 16.7974 100.909 16.7974C99.6498 16.7974 98.6044 17.2509 97.773 18.1578C96.9416 19.0395 96.526 20.337 96.526 22.0501C96.526 23.738 96.929 25.0354 97.7352 25.9423C98.5666 26.8492 99.5995 27.3027 100.834 27.3027Z" fill="#265D88"/>
<path d="M124.781 26.5469L129.354 11.5069H136.232L128.749 32.5932H120.776L113.294 11.5069H120.209L124.781 26.5469Z" fill="#265D88"/>
<path d="M142.201 9.31517C141.068 9.31517 140.135 8.98767 139.405 8.33266C138.7 7.65246 138.347 6.82111 138.347 5.83859C138.347 4.83089 138.7 3.99953 139.405 3.34452C140.135 2.66432 141.068 2.32422 142.201 2.32422C143.31 2.32422 144.217 2.66432 144.922 3.34452C145.653 3.99953 146.018 4.83089 146.018 5.83859C146.018 6.82111 145.653 7.65246 144.922 8.33266C144.217 8.98767 143.31 9.31517 142.201 9.31517ZM145.413 11.5069V32.5932H138.951V11.5069H145.413Z" fill="#265D88"/>
<path d="M162.944 11.2802C165.413 11.2802 167.378 12.0864 168.84 13.6987C170.326 15.2858 171.069 17.4776 171.069 20.274V32.5932H164.645V21.1431C164.645 19.7323 164.28 18.6364 163.549 17.8555C162.818 17.0745 161.836 16.684 160.602 16.684C159.367 16.684 158.385 17.0745 157.654 17.8555C156.923 18.6364 156.558 19.7323 156.558 21.1431V32.5932H150.096V11.5069H156.558V14.3033C157.213 13.3712 158.095 12.6406 159.203 12.1116C160.312 11.5573 161.559 11.2802 162.944 11.2802Z" fill="#265D88"/>
<path d="M183.571 11.2046C185.057 11.2046 186.355 11.5069 187.463 12.1116C188.597 12.7162 189.466 13.5097 190.07 14.4923V11.5069H196.532V32.5554C196.532 34.4952 196.142 36.2461 195.361 37.808C194.605 39.3952 193.434 40.6548 191.847 41.5869C190.285 42.5191 188.332 42.9851 185.989 42.9851C182.865 42.9851 180.333 42.2419 178.394 40.7556C176.454 39.2944 175.345 37.3042 175.068 34.7849H181.455C181.656 35.5911 182.135 36.2209 182.891 36.6744C183.646 37.153 184.578 37.3924 185.687 37.3924C187.022 37.3924 188.08 37.0019 188.861 36.2209C189.667 35.4651 190.07 34.2433 190.07 32.5554V29.57C189.441 30.5526 188.571 31.3587 187.463 31.9885C186.355 32.5932 185.057 32.8955 183.571 32.8955C181.832 32.8955 180.258 32.4546 178.847 31.5729C177.436 30.6659 176.315 29.3937 175.484 27.7562C174.678 26.0935 174.275 24.1788 174.275 22.0123C174.275 19.8457 174.678 17.9437 175.484 16.3061C176.315 14.6686 177.436 13.409 178.847 12.5272C180.258 11.6455 181.832 11.2046 183.571 11.2046ZM190.07 22.0501C190.07 20.4377 189.617 19.1655 188.71 18.2334C187.828 17.3012 186.745 16.8352 185.46 16.8352C184.175 16.8352 183.079 17.3012 182.173 18.2334C181.291 19.1403 180.85 20.3999 180.85 22.0123C180.85 23.6246 181.291 24.9094 182.173 25.8667C183.079 26.7989 184.175 27.2649 185.46 27.2649C186.745 27.2649 187.828 26.7989 188.71 25.8667C189.617 24.9346 190.07 23.6624 190.07 22.0501Z" fill="#265D88"/>
<path d="M39.6772 32.2751C39.725 34.287 38.2664 35.0295 38.2664 35.0295L22.2683 44.3226C22.2683 44.3226 20.3057 45.5928 18.729 44.7445C18.5746 44.6614 18.6092 44.6837 18.3146 44.5106L1.56427 34.8198C1.56427 34.8198 0.186174 34.0408 0.0765381 32.2483L0.115572 13.1612C0.244159 10.7069 2.91571 9.53359 2.91571 9.53359L18.0701 0.691522C18.0701 0.691522 19.3174 0.239843 20.3837 0.288878C21.3637 0.333952 22.1635 0.598582 22.1635 0.598582L36.302 8.67949L38.3543 9.85253C38.3543 9.85253 39.1705 10.364 39.3649 10.9398C39.5594 11.5156 39.4918 12.9298 39.4918 12.9298L39.6772 32.323" fill="#265D88"/>
<path d="M0.100706 23.4131L10.9334 29.8081L10.9574 19.2569M10.9559 19.3147C11.2076 17.0258 13.1022 15.9657 13.1022 15.9657L31.0445 5.6891L23.2973 1.02584C23.2973 1.02584 20.4755 -0.950145 17.9287 0.582744C15.3819 2.11563 2.79159 9.31302 2.79159 9.31302C2.79159 9.31302 0.232854 10.7621 0.125243 13.1692C0.0176318 15.5763 0.100596 23.4131 0.100596 23.4131" fill="#FEA609"/>
<path d="M22.6934 25.4366C22.6934 24.8433 23.0113 24.2954 23.5265 24.0011L34.8874 17.5107C35.6685 17.0645 36.6417 17.6205 36.654 18.5199L36.7147 22.9591C36.7229 23.5612 36.4031 24.1202 35.8798 24.4183L24.4587 30.9235C23.6715 31.3719 22.6934 30.8034 22.6934 29.8974V25.4366Z" fill="white"/>
<path d="M7.2173 38.6127C8.37254 37.4227 8.16165 34.7542 6.74627 32.6525C5.33088 30.5508 3.24698 29.8118 2.09174 31.0019C0.936507 32.192 1.1474 34.8605 2.56278 36.9622C3.97816 39.0638 6.06207 39.8028 7.2173 38.6127Z" fill="white"/>
<path d="M5.878 36.5535C6.45539 35.9519 6.34999 34.603 5.64257 33.5405C4.93515 32.4781 3.8936 32.1045 3.31621 32.7061C2.73882 33.3077 2.84423 34.6567 3.55165 35.7191C4.25906 36.7816 5.3006 37.1552 5.878 36.5535Z" fill="#265D88"/>
<path d="M17.7349 44.8452C18.8901 43.6551 18.6792 40.9866 17.2638 38.8849C15.8485 36.7832 13.7646 36.0442 12.6093 37.2343C11.4541 38.4244 11.665 41.0929 13.0804 43.1946C14.4957 45.2963 16.5796 46.0352 17.7349 44.8452Z" fill="white"/>
<path d="M16.578 42.7624C17.1764 42.1478 17.0671 40.7698 16.334 39.6844C15.6009 38.5991 14.5214 38.2174 13.923 38.832C13.3246 39.4466 13.4339 40.8247 14.167 41.91C14.9002 42.9954 15.9796 43.377 16.578 42.7624Z" fill="#265D88"/>
<path d="M24.1295 39.0767C24.9704 39.2353 26.0479 38.3319 26.536 37.0589C27.0242 35.7859 26.7381 34.6254 25.8971 34.4668C25.0561 34.3082 23.9787 35.2117 23.4906 36.4847C23.0024 37.7577 23.2885 38.9182 24.1295 39.0767Z" fill="white"/>
<path d="M34.5794 33.0474C35.4203 33.206 36.4978 32.3026 36.9859 31.0296C37.4741 29.7566 37.188 28.5961 36.347 28.4375C35.506 28.2789 34.4286 29.1824 33.9404 30.4554C33.4523 31.7284 33.7384 32.8889 34.5794 33.0474Z" fill="white"/>
</svg>
